<svg width="46" height="38" viewBox="0 0 46 38" fill="none" xmlns="http://www.w3.org/2000/svg">
<path fill-rule="evenodd" clip-rule="evenodd" d="M12.9375 19C12.9375 19.3639 12.8507 19.7242 12.6821 20.0603C12.5136 20.3965 12.2665 20.702 11.955 20.9593C11.6436 21.2166 11.2738 21.4207 10.8669 21.5599C10.4599 21.6992 10.0238 21.7708 9.58329 21.7708C9.14282 21.7708 8.70666 21.6992 8.29971 21.5599C7.89276 21.4207 7.523 21.2166 7.21154 20.9593C6.90008 20.702 6.65301 20.3965 6.48445 20.0603C6.31588 19.7242 6.22913 19.3639 6.22913 19C6.22913 18.2651 6.58251 17.5603 7.21154 17.0407C7.84057 16.5211 8.69371 16.2292 9.58329 16.2292C10.4729 16.2292 11.326 16.5211 11.955 17.0407C12.5841 17.5603 12.9375 18.2651 12.9375 19ZM23 16.2292C23.8895 16.2292 24.7427 16.5211 25.3717 17.0407C26.0007 17.5603 26.3541 18.2651 26.3541 19C26.3541 19.7349 26.0007 20.4396 25.3717 20.9593C24.7427 21.4789 23.8895 21.7708 23 21.7708C22.1104 21.7708 21.2572 21.4789 20.6282 20.9593C19.9992 20.4396 19.6458 19.7349 19.6458 19C19.6458 18.2651 19.9992 17.5603 20.6282 17.0407C21.2572 16.5211 22.1104 16.2292 23 16.2292ZM36.4166 16.2292C37.3062 16.2292 38.1594 16.5211 38.7884 17.0407C39.4174 17.5603 39.7708 18.2651 39.7708 19C39.7708 19.7349 39.4174 20.4396 38.7884 20.9593C38.1594 21.4789 37.3062 21.7708 36.4166 21.7708C35.527 21.7708 34.6739 21.4789 34.0449 20.9593C33.4158 20.4396 33.0625 19.7349 33.0625 19C33.0625 18.2651 33.4158 17.5603 34.0449 17.0407C34.6739 16.5211 35.527 16.2292 36.4166 16.2292Z" fill="white"/>
</svg>
