<svg width="33" height="28" viewBox="0 0 33 28" fill="none" xmlns="http://www.w3.org/2000/svg">
<path d="M27.5354 21.7269L32.1738 25.5089C32.3901 25.6916 32.5098 25.9363 32.5071 26.1903C32.5044 26.4443 32.3795 26.6873 32.1594 26.8669C31.9392 27.0465 31.6413 27.1484 31.33 27.1506C31.0186 27.1528 30.7187 27.0552 30.4947 26.8787L25.8563 23.0948C22.8253 25.2133 18.9061 26.2918 14.9214 26.1039C10.9366 25.916 7.19594 24.4763 4.48429 22.0869C1.77264 19.6976 0.300801 16.5443 0.377618 13.2887C0.454436 10.0332 2.07394 6.92842 4.8963 4.62597C7.71866 2.32352 11.5245 1.00235 15.5152 0.939683C19.5058 0.877016 23.3712 2.07773 26.3 4.28986C29.2289 6.502 30.9937 9.5536 31.224 12.8043C31.4544 16.0551 30.1324 19.2522 27.5354 21.7249V21.7269ZM15.8124 24.1875C19.2768 24.1875 22.5993 23.0648 25.049 21.0664C27.4987 19.0679 28.8749 16.3575 28.8749 13.5313C28.8749 10.705 27.4987 7.99458 25.049 5.99615C22.5993 3.99771 19.2768 2.875 15.8124 2.875C12.3481 2.875 9.02556 3.99771 6.57587 5.99615C4.12617 7.99458 2.74995 10.705 2.74995 13.5313C2.74995 16.3575 4.12617 19.0679 6.57587 21.0664C9.02556 23.0648 12.3481 24.1875 15.8124 24.1875Z" fill="white"/>
</svg>
