<svg width="40" height="45" viewBox="0 0 40 45" fill="none" xmlns="http://www.w3.org/2000/svg">
<path d="M6.66667 24.375C7.58333 24.375 8.33333 23.5312 8.33333 22.5C8.33333 21.4688 7.58333 20.625 6.66667 20.625C5.75 20.625 5 21.4688 5 22.5C5 23.5312 5.75 24.375 6.66667 24.375ZM6.66667 31.875C7.58333 31.875 8.33333 31.0312 8.33333 30C8.33333 28.9688 7.58333 28.125 6.66667 28.125C5.75 28.125 5 28.9688 5 30C5 31.0312 5.75 31.875 6.66667 31.875ZM6.66667 16.875C7.58333 16.875 8.33333 16.0312 8.33333 15C8.33333 13.9688 7.58333 13.125 6.66667 13.125C5.75 13.125 5 13.9688 5 15C5 16.0312 5.75 16.875 6.66667 16.875ZM13.3333 24.375H33.3333C34.25 24.375 35 23.5312 35 22.5C35 21.4688 34.25 20.625 33.3333 20.625H13.3333C12.4167 20.625 11.6667 21.4688 11.6667 22.5C11.6667 23.5312 12.4167 24.375 13.3333 24.375ZM13.3333 31.875H33.3333C34.25 31.875 35 31.0312 35 30C35 28.9688 34.25 28.125 33.3333 28.125H13.3333C12.4167 28.125 11.6667 28.9688 11.6667 30C11.6667 31.0312 12.4167 31.875 13.3333 31.875ZM11.6667 15C11.6667 16.0312 12.4167 16.875 13.3333 16.875H33.3333C34.25 16.875 35 16.0312 35 15C35 13.9688 34.25 13.125 33.3333 13.125H13.3333C12.4167 13.125 11.6667 13.9688 11.6667 15ZM6.66667 24.375C7.58333 24.375 8.33333 23.5312 8.33333 22.5C8.33333 21.4688 7.58333 20.625 6.66667 20.625C5.75 20.625 5 21.4688 5 22.5C5 23.5312 5.75 24.375 6.66667 24.375ZM6.66667 31.875C7.58333 31.875 8.33333 31.0312 8.33333 30C8.33333 28.9688 7.58333 28.125 6.66667 28.125C5.75 28.125 5 28.9688 5 30C5 31.0312 5.75 31.875 6.66667 31.875ZM6.66667 16.875C7.58333 16.875 8.33333 16.0312 8.33333 15C8.33333 13.9688 7.58333 13.125 6.66667 13.125C5.75 13.125 5 13.9688 5 15C5 16.0312 5.75 16.875 6.66667 16.875ZM13.3333 24.375H33.3333C34.25 24.375 35 23.5312 35 22.5C35 21.4688 34.25 20.625 33.3333 20.625H13.3333C12.4167 20.625 11.6667 21.4688 11.6667 22.5C11.6667 23.5312 12.4167 24.375 13.3333 24.375ZM13.3333 31.875H33.3333C34.25 31.875 35 31.0312 35 30C35 28.9688 34.25 28.125 33.3333 28.125H13.3333C12.4167 28.125 11.6667 28.9688 11.6667 30C11.6667 31.0312 12.4167 31.875 13.3333 31.875ZM11.6667 15C11.6667 16.0312 12.4167 16.875 13.3333 16.875H33.3333C34.25 16.875 35 16.0312 35 15C35 13.9688 34.25 13.125 33.3333 13.125H13.3333C12.4167 13.125 11.6667 13.9688 11.6667 15Z" fill="white"/>
</svg>
