<svg width="55" height="51" viewBox="0 0 55 51" fill="none" xmlns="http://www.w3.org/2000/svg">
<g clip-path="url(#clip0_1_4)">
<path d="M27.5 0.5C12.3123 0.5 0 11.6932 0 25.5C0 39.3078 12.3125 50.5 27.5 50.5C42.6888 50.5 55 39.3078 55 25.5C55 11.6941 42.6888 0.501367 27.4996 0.501367L27.5 0.5ZM40.1111 36.5574C39.6185 37.2918 38.561 37.5246 37.7532 37.0738C31.2965 33.4885 23.1685 32.6764 13.5962 34.6646C13.1529 34.7564 12.6877 34.6843 12.3028 34.4643C11.918 34.2443 11.645 33.8944 11.544 33.4914C11.4937 33.2919 11.4871 33.0854 11.5247 32.8836C11.5622 32.6819 11.6432 32.4888 11.7629 32.3155C11.8827 32.1422 12.0388 31.9921 12.2224 31.8737C12.406 31.7553 12.6135 31.671 12.833 31.6256C23.3088 29.4498 32.2942 30.3865 39.5431 34.4139C40.3509 34.8647 40.607 35.823 40.1111 36.5574ZM43.4771 29.7502C42.8562 30.6672 41.5362 30.9568 40.5281 30.3926C33.1362 26.2621 21.8683 25.0658 13.1252 27.4785C11.9913 27.7898 10.7937 27.209 10.4496 26.1799C10.108 25.149 10.7473 24.0623 11.8794 23.749C21.8664 20.9939 34.2822 22.3285 42.7711 27.0707C43.7791 27.6352 44.0978 28.835 43.4771 29.7502ZM43.766 22.6617C34.9029 17.8758 20.28 17.4355 11.8179 19.7707C10.459 20.1453 9.02193 19.4479 8.61029 18.2125C8.19844 16.9766 8.96478 15.6711 10.3247 15.2955C20.0385 12.6146 36.187 13.1328 46.391 18.6398C47.616 19.2992 48.0165 20.7344 47.2908 21.8439C46.5685 22.9553 44.9855 23.3215 43.7673 22.6617H43.766Z" fill="#1ED760"/>
</g>
<defs>
<clipPath id="clip0_1_4">
<rect width="55" height="50" fill="white" transform="translate(0 0.5)"/>
</clipPath>
</defs>
</svg>
