<svg width="41" height="48" viewBox="0 0 41 48" fill="none" xmlns="http://www.w3.org/2000/svg">
<path d="M34.1668 10C34.1668 9.46957 33.9868 8.96086 33.6665 8.58579C33.3461 8.21071 32.9116 8 32.4585 8H23.9168C23.4638 8 23.0292 8.21071 22.7089 8.58579C22.3885 8.96086 22.2085 9.46957 22.2085 10C22.2085 10.5304 22.3885 11.0391 22.7089 11.4142C23.0292 11.7893 23.4638 12 23.9168 12H28.3072L22.7039 18.58C22.5438 18.7659 22.4167 18.9871 22.33 19.2308C22.2432 19.4746 22.1986 19.736 22.1986 20C22.1986 20.264 22.2432 20.5254 22.33 20.7692C22.4167 21.0129 22.5438 21.2341 22.7039 21.42C22.8627 21.6075 23.0517 21.7562 23.2598 21.8578C23.468 21.9593 23.6913 22.0116 23.9168 22.0116C24.1423 22.0116 24.3656 21.9593 24.5738 21.8578C24.782 21.7562 24.9709 21.6075 25.1297 21.42L30.7502 14.84V20C30.7502 20.5304 30.9301 21.0391 31.2505 21.4142C31.5709 21.7893 32.0054 22 32.4585 22C32.9116 22 33.3461 21.7893 33.6665 21.4142C33.9868 21.0391 34.1668 20.5304 34.1668 20V10ZM18.2964 26.58C18.1376 26.3925 17.9487 26.2438 17.7405 26.1422C17.5323 26.0407 17.309 25.9884 17.0835 25.9884C16.858 25.9884 16.6347 26.0407 16.4265 26.1422C16.2183 26.2438 16.0294 26.3925 15.8706 26.58L10.2502 33.14V28C10.2502 27.4696 10.0702 26.9609 9.7498 26.5858C9.42943 26.2107 8.99491 26 8.54183 26C8.08875 26 7.65423 26.2107 7.33386 26.5858C7.01348 26.9609 6.8335 27.4696 6.8335 28V38C6.8335 38.5304 7.01348 39.0391 7.33386 39.4142C7.65423 39.7893 8.08875 40 8.54183 40H17.0835C17.5366 40 17.9711 39.7893 18.2915 39.4142C18.6118 39.0391 18.7918 38.5304 18.7918 38C18.7918 37.4696 18.6118 36.9609 18.2915 36.5858C17.9711 36.2107 17.5366 36 17.0835 36H12.676L18.2964 29.42C18.4565 29.2341 18.5836 29.0129 18.6704 28.7692C18.7571 28.5254 18.8017 28.264 18.8017 28C18.8017 27.736 18.7571 27.4746 18.6704 27.2308C18.5836 26.9871 18.4565 26.7659 18.2964 26.58Z" fill="white"/>
</svg>
