<svg width="32" height="33" viewBox="0 0 32 33" fill="none" xmlns="http://www.w3.org/2000/svg">
<path d="M7.6547 24.3491C7.65774 24.6061 7.75942 24.8513 7.93737 25.0309C8.11532 25.2104 8.35496 25.3097 8.60359 25.3067C8.85221 25.3038 9.08944 25.1989 9.2631 25.0152C9.43676 24.8315 9.53261 24.5839 9.52957 24.327L9.45519 18.0344L21.2883 24.9398C22.3078 25.5323 23.5985 24.7846 23.584 23.5641L23.4149 9.25856C23.4005 8.03802 22.0944 7.31716 21.0873 7.93555L9.42073 15.1187L9.34637 8.82807C9.34333 8.57116 9.24166 8.32594 9.06371 8.14635C8.88576 7.96677 8.64611 7.86753 8.39749 7.87047C8.14886 7.87341 7.91163 7.97828 7.73797 8.16202C7.56432 8.34576 7.46846 8.59332 7.4715 8.85023L7.6547 24.3491Z" fill="white"/>
</svg>
