<svg width="53" height="47" viewBox="0 0 53 47" fill="none" xmlns="http://www.w3.org/2000/svg">
<ellipse cx="26.5" cy="23.5" rx="26.5" ry="23.5" fill="#D9D9D9"/>
<path d="M34.6742 24.7688C34.9346 24.5597 35.1454 24.2917 35.2905 23.9851C35.4355 23.6785 35.5109 23.3416 35.5109 23.0001C35.5109 22.6586 35.4355 22.3217 35.2905 22.0151C35.1454 21.7085 34.9346 21.4404 34.6742 21.2314C31.3017 18.5261 27.5363 16.3933 23.5187 14.9128L22.7841 14.6421C21.3801 14.1253 19.8962 15.1099 19.7061 16.6138C19.1751 20.8535 19.1751 25.1467 19.7061 29.3864C19.8974 30.8903 21.3801 31.8749 22.7841 31.3581L23.5187 31.0874C27.5363 29.6068 31.3017 27.4741 34.6742 24.7688Z" fill="black"/>
</svg>
