<svg width="30" height="31" viewBox="0 0 30 31" fill="none" xmlns="http://www.w3.org/2000/svg">
<path d="M23.4375 7.75C23.4375 7.49307 23.3387 7.24667 23.1629 7.06499C22.9871 6.88331 22.7486 6.78125 22.5 6.78125C22.2514 6.78125 22.0129 6.88331 21.8371 7.06499C21.6613 7.24667 21.5625 7.49307 21.5625 7.75V14.043L9.81187 6.99825C8.79937 6.39375 7.5 7.12613 7.5 8.34675V22.6532C7.5 23.8739 8.7975 24.6101 9.81187 24.0037L21.5625 16.9589V23.25C21.5625 23.5069 21.6613 23.7533 21.8371 23.935C22.0129 24.1167 22.2514 24.2187 22.5 24.2187C22.7486 24.2187 22.9871 24.1167 23.1629 23.935C23.3387 23.7533 23.4375 23.5069 23.4375 23.25V7.75Z" fill="white"/>
</svg>
