<svg width="60" height="59" viewBox="0 0 60 59" fill="none" xmlns="http://www.w3.org/2000/svg">
<ellipse cx="30" cy="29.5" rx="30" ry="29.5" fill="black"/>
<path d="M38.0705 31.9775C38.3598 31.7438 38.594 31.4441 38.7551 31.1013C38.9162 30.7585 39 30.3818 39 30C39 29.6182 38.9162 29.2415 38.7551 28.8987C38.594 28.5559 38.3598 28.2562 38.0705 28.0225C34.324 24.9979 30.141 22.6133 25.6779 20.9579L24.8618 20.6553C23.3021 20.0775 21.6536 21.1784 21.4424 22.8597C20.8525 27.6 20.8525 32.4 21.4424 37.1403C21.6549 38.8216 23.3021 39.9225 24.8618 39.3447L25.6779 39.0421C30.141 37.3867 34.324 35.0021 38.0705 31.9775Z" fill="#05C73B"/>
</svg>
