<svg width="60" height="59" viewBox="0 0 60 59" fill="none" xmlns="http://www.w3.org/2000/svg">
<ellipse cx="30" cy="29.5" rx="30" ry="29.5" fill="black"/>
<path d="M27 22.5H25C24.4477 22.5 24 22.9477 24 23.5V35.5C24 36.0523 24.4477 36.5 25 36.5H27C27.5523 36.5 28 36.0523 28 35.5V23.5C28 22.9477 27.5523 22.5 27 22.5Z" fill="#05C73B"/>
<path d="M35 22.5H33C32.4477 22.5 32 22.9477 32 23.5V35.5C32 36.0523 32.4477 36.5 33 36.5H35C35.5523 36.5 36 36.0523 36 35.5V23.5C36 22.9477 35.5523 22.5 35 22.5Z" fill="#05C73B"/>
</svg>
